<svg width="18" height="17" viewBox="0 0 18 17" fill="none" xmlns="http://www.w3.org/2000/svg">
<path d="M16.0201 8.08335C16.0229 9.18323 15.7779 10.2682 15.3054 11.25C14.745 12.4265 13.8836 13.416 12.8175 14.1077C11.7515 14.7995 10.523 15.1662 9.26957 15.1667C8.22135 15.1695 7.18731 14.9126 6.25168 14.4167L1.72484 16L3.23378 11.25C2.76119 10.2682 2.51629 9.18323 2.51902 8.08335C2.51951 6.76815 2.86895 5.47906 3.5282 4.36048C4.18746 3.24189 5.13049 2.33799 6.25168 1.75002C7.18731 1.25413 8.22135 0.997156 9.26957 1.00002H9.66666C11.322 1.09585 12.8855 1.82899 14.0578 3.05907C15.2301 4.28915 15.9288 5.92973 16.0201 7.66668V8.08335Z" stroke="black" stroke-width="2" stroke-linecap="round" stroke-linejoin="round"/>
</svg>
