<svg width="22" height="24" viewBox="0 0 22 24" fill="none" xmlns="http://www.w3.org/2000/svg">
<path d="M19.4578 2.86221C18.9691 2.27183 18.3889 1.80351 17.7503 1.48398C17.1117 1.16446 16.4272 1 15.7359 1C15.0446 1 14.3601 1.16446 13.7215 1.48398C13.0829 1.80351 12.5026 2.27183 12.0139 2.86221L10.9997 4.08687L9.98554 2.86221C8.99842 1.67025 7.6596 1.00062 6.26361 1.00062C4.86761 1.00062 3.52879 1.67025 2.54168 2.86221C1.55456 4.05416 1 5.6708 1 7.35648C1 9.04216 1.55456 10.6588 2.54168 11.8508L3.55588 13.0754L10.9997 22.064L18.4436 13.0754L19.4578 11.8508C19.9467 11.2607 20.3346 10.56 20.5992 9.78888C20.8638 9.01774 21 8.1912 21 7.35648C21 6.52176 20.8638 5.69522 20.5992 4.92408C20.3346 4.15294 19.9467 3.4523 19.4578 2.86221Z" fill="#FF1212" stroke="#FF1212" stroke-width="2" stroke-linecap="round" stroke-linejoin="round"/>
</svg>
