<svg width="17" height="17" viewBox="0 0 17 17" fill="none" xmlns="http://www.w3.org/2000/svg">
<path d="M14.4078 2.32611C14.0585 1.90569 13.6437 1.57219 13.1873 1.34465C12.7308 1.11711 12.2416 1 11.7475 1C11.2534 1 10.7641 1.11711 10.3076 1.34465C9.85118 1.57219 9.43645 1.90569 9.08715 2.32611L8.36224 3.19821L7.63732 2.32611C6.93176 1.4773 5.97482 1.00044 4.97701 1.00044C3.9792 1.00044 3.02226 1.4773 2.3167 2.32611C1.61115 3.17492 1.21477 4.32616 1.21477 5.52656C1.21477 6.72696 1.61115 7.87819 2.3167 8.727L3.04162 9.5991L8.36224 16L13.6829 9.5991L14.4078 8.727C14.7572 8.30679 15.0344 7.80785 15.2236 7.25871C15.4127 6.70957 15.5101 6.12097 15.5101 5.52656C15.5101 4.93214 15.4127 4.34355 15.2236 3.7944C15.0344 3.24526 14.7572 2.74633 14.4078 2.32611Z" stroke="black" stroke-width="2" stroke-linecap="round" stroke-linejoin="round"/>
</svg>
