<svg width="18" height="18" viewBox="0 0 18 18" fill="none" xmlns="http://www.w3.org/2000/svg">
<path d="M10.8 9.47369H9.9V8.52633C9.9 8.27507 9.80518 8.0341 9.6364 7.85644C9.46761 7.67877 9.23869 7.57896 9 7.57896C8.7613 7.57896 8.53239 7.67877 8.3636 7.85644C8.19482 8.0341 8.1 8.27507 8.1 8.52633V9.47369H7.2C6.96131 9.47369 6.73239 9.57351 6.5636 9.75117C6.39482 9.92884 6.3 10.1698 6.3 10.4211C6.3 10.6723 6.39482 10.9133 6.5636 11.091C6.73239 11.2686 6.96131 11.3684 7.2 11.3684H8.1V12.3158C8.1 12.5671 8.19482 12.808 8.3636 12.9857C8.53239 13.1634 8.7613 13.2632 9 13.2632C9.23869 13.2632 9.46761 13.1634 9.6364 12.9857C9.80518 12.808 9.9 12.5671 9.9 12.3158V11.3684H10.8C11.0387 11.3684 11.2676 11.2686 11.4364 11.091C11.6052 10.9133 11.7 10.6723 11.7 10.4211C11.7 10.1698 11.6052 9.92884 11.4364 9.75117C11.2676 9.57351 11.0387 9.47369 10.8 9.47369ZM15.3 2.84212H9.648L9.36 1.89476C9.1733 1.33887 8.82697 0.857865 8.36901 0.518383C7.91105 0.178901 7.36412 -0.0022518 6.804 2.11297e-05H2.7C1.98392 2.11297e-05 1.29716 0.299456 0.790812 0.832454C0.284464 1.36545 0 2.08835 0 2.84212V15.1579C0 15.9117 0.284464 16.6346 0.790812 17.1676C1.29716 17.7006 1.98392 18 2.7 18H15.3C16.0161 18 16.7028 17.7006 17.2092 17.1676C17.7155 16.6346 18 15.9117 18 15.1579V5.68422C18 4.93045 17.7155 4.20755 17.2092 3.67456C16.7028 3.14156 16.0161 2.84212 15.3 2.84212ZM16.2 15.1579C16.2 15.4092 16.1052 15.6501 15.9364 15.8278C15.7676 16.0055 15.5387 16.1053 15.3 16.1053H2.7C2.46131 16.1053 2.23239 16.0055 2.0636 15.8278C1.89482 15.6501 1.8 15.4092 1.8 15.1579V2.84212C1.8 2.59087 1.89482 2.3499 2.0636 2.17223C2.23239 1.99457 2.46131 1.89476 2.7 1.89476H6.804C6.99268 1.89424 7.17674 1.95616 7.33017 2.07176C7.48359 2.18736 7.59862 2.3508 7.659 2.53897L8.145 4.09265C8.20538 4.28082 8.32041 4.44425 8.47383 4.55985C8.62726 4.67545 8.81132 4.73737 9 4.73686H15.3C15.5387 4.73686 15.7676 4.83667 15.9364 5.01434C16.1052 5.192 16.2 5.43297 16.2 5.68422V15.1579Z" fill="black"/>
</svg>
